<svg xmlns="http://www.w3.org/2000/svg" viewBox="0 0 256 768" enable-background="new 0 0 256 768"><style type="text/css">.st0{display:none;} .st1{display:inline;fill:#EB26FF;} .st2{display:inline;fill:#EB26D0;} .st3{display:inline;fill:#EB2699;} .st4{fill:#71F5FF;} .st5{fill:#FFFFFF;} .st6{fill:#5FCED6;}</style><g id="sprites" class="st0"><path class="st1" d="M0 0h256v256h-256z"/><path class="st2" d="M0 256h256v256h-256z"/><path class="st3" d="M0 512h256v256h-256z"/></g><g id="boosters"><path class="st4" d="M148.7 127.7s-53.6 36.9-94.1 36.9-52.6-16.6-52.6-36.9 12.1-36.9 52.6-36.9l94.1 36.9zm67.4 256s-78.2 47.9-137.4 47.9-76.7-21.5-76.7-47.9c0-26.5 17.6-47.9 76.8-47.9l137.3 47.9z"/><path class="st5" d="M73.8 383.7s-26.2 18.1-46.1 18.1-25.7-8.2-25.7-18.1 5.9-18.1 25.7-18.1l46.1 18.1z"/><path class="st6" d="M80 591s16-21.3 73.6-13.6c-69.1 9.1-48.8 23.3-48.8 23.3l29.6 7.9s2.4-14.4 51.2-17.6c-30.4 14.4-34.4 22.4-34.4 22.4l19.2 8.2s45.6-19.4 73.6-4.2c-56 4.8-61.6 12.8-61.6 12.8s45.6 11.2 61.6 16c-30.4 11.5-52 0-52 0s-8.8 7.2 21.6 20c-32 12.4-51.6-8.5-51.6-8.5s-27.6 23.7 18.8 44.5c-52.8-9.6-64-25.7-64-25.7s-36.8 0-16.8 25.7c-18.4-3.2-26.2-23.6-26.2-23.6l6.2-87.6zm139.5 48.7s-79.5 48.7-139.5 48.7-78-21.9-78-48.7 17.9-48.7 78-48.7l139.5 48.7z"/><path class="st4" d="M176.1 639.7s-63.6 39-111.7 39-62.4-17.5-62.4-39 14.3-39 62.4-39l111.7 39z"/><path class="st5" d="M73.8 639.7s-26.2 18.1-46.1 18.1-25.7-8.2-25.7-18.1c0-10 5.9-18.1 25.7-18.1l46.1 18.1z"/></g></svg>