<svg xmlns="http://www.w3.org/2000/svg" viewBox="0 0 256 256" enable-background="new 0 0 256 256"><style type="text/css">.st0{fill:#FFFFFF;}</style><path class="st0" d="M127.8 10.6c65.1 0 117.8 53.1 117.8 117.4 0 64.2-52.7 117.4-117.8 117.4-64.2 0-117.4-53.1-117.4-117.4 0-64.2 53.2-117.4 117.4-117.4zm8.2 226.1c7-11.9 25.5-25.9 37.1-26.4 8.2-.4 16.1 2.9 20.2 4.9 24.3-18.1 40.8-45.7 43.7-77-7 9.1-15.2 16.5-20.2 20.2-3.3 2.5-9.9.8-11.5-1.6-.4-.4-.4-2.1-1.2-1.6-2.9.4-1.6 2.9-2.1 4.1-1.2 4.1-2.1 8.7-10.7 7.8-5.8-.4-10.3-11.5-17.3-25.9-3.3-6.2-9.5-18.1-14.8-25.1-3.7-4.9-9.1-11.9-16.5-15.6-11.9-7-21.8-10.7-21.8-17.3 0-7.8 3.3-9.1 7.8-9.1 4.9 0 14.8 4.9 24.7.4 15.6-7.8 20.2-17.3 37.9-17.3 11.1 0 15.2-.4 21.4 1.6-10.3-11.9-23.1-22.2-37.5-29.2-14.8 11.1-28 13.2-41.6 13.2-16.5 0-35-7.4-44.9-16.5-40.8 15.6-70 55.6-70 101.7 0 60.1 49 109.1 109.1 109.1 2.9 0 5.8 0 8.2-.4zm-67.1-85.6c-10.7 0-22.7-10.3-22.7-24.7 0-13.6 7.4-25.5 22.2-25.5 9.5 0 22.2 7 22.2 24.7.1 14.8-11 25.5-21.7 25.5zm0-8.3c7.4 0 13.6-8.2 13.6-17.3 0-11.1-7.8-16.5-14-16.5-9.9 0-14 8.6-14 17.3 0 9.5 7 16.5 14.4 16.5zm-2.1 63.4c-4.1 0-9.1-3.3-9.1-9.9 0-7.8 3.7-11.5 9.5-11.5 5.4 0 9.9 4.1 9.9 10.3 0 7-4.5 11.1-10.3 11.1zm0-8.2c1.6 0 2.1-1.6 2.1-2.9 0-1.2-.4-2.1-1.6-2.1-1.6 0-1.2 2.1-1.2 3.3-.1.5-.1 1.7.7 1.7zm29.7-31.3c5.8 0 10.3 4.9 10.3 11.9s-4.9 11.5-9.9 11.5c-6.6 0-11.1-4.1-11.1-11.1 0-6.1 2.9-12.3 10.7-12.3zm0 8.2c-2.5 0-2.5 2.9-2.5 4.1 0 2.1 1.2 2.9 2.9 2.9s1.6-2.1 1.6-3.3-.4-3.7-2-3.7zm69.6-149c-11.9-4.5-24.7-7-38.3-7-10.3 0-20.6 1.6-30.1 4.1 9.5 7 23.5 11.5 35.8 11.5 10.8 0 21.1-1.6 32.6-8.6zm-38.7 105.8c9.9-.4 17.7 7.4 17.7 17.3s-6.2 14-16.5 14.4c-10.7.4-15.2-3.7-15.6-12.8-.4-9 4.9-18.5 14.4-18.9zm.8 8.2c-5.4.4-7.4 5.8-7 9.9.4 4.1 2.5 5.8 6.6 5.4 4.5-.4 9.1-1.2 9.1-6.2s-3.8-9.5-8.7-9.1zm66.3 16.9c1.2-3.7.8-7.8 7-9.9 5.8-1.2 8.2 2.1 10.3 4.9 6.2-4.5 19.4-16.5 25.5-29.7-1.2-17.7-6.2-34.2-14.8-48.6-15.6-9.5-15.6-8.2-31.3-8.2-16.1 0-19.8 9.5-34.6 16.5-10.7 5.4-22.2.4-28 .4 2.5 5.4 11.1 7 18.1 10.7 8.2 4.5 14.4 12.4 18.9 18.1 5.4 7 12.4 19.8 15.6 26.8 4.5 8.6 5.8 20.6 10.7 21 2.2.1 2.2-1.2 2.6-2zm-47.3 78.7c13.6-2.5 26.8-7.8 38.3-14.8-3.3-1.2-7.8-2.1-12.4-2.1-7.8.4-19.4 8.2-25.9 16.9z"/></svg>